<?xml version="1.0" encoding="utf-8"?>
<!-- Generator: Adobe Illustrator 20.0.0, SVG Export Plug-In . SVG Version: 6.00 Build 0)  -->
<svg version="1.1" id="Layer_1" xmlns="http://www.w3.org/2000/svg" xmlns:xlink="http://www.w3.org/1999/xlink" x="0px" y="0px"
	 viewBox="0 0 253.1 106.2" style="enable-background:new 0 0 253.1 106.2;" xml:space="preserve">
<style type="text/css">
	.st0{fill:#66C5B5;}
</style>
<g>
	<path class="st0" d="M0,54.7C0,40,0,28,0,15.9c0-1.8,0.2-3.7,0.4-5.5C0.9,7,2.9,4.5,5.6,2.6C9.6-0.3,13.9-0.7,18.3,1
		c4.9,1.9,7.7,5.6,8.4,10.9c0.5,4-0.1,8.1,0,12.1c0,1.2,0,2.4,0,3.6c0,0.7,0.2,0.9,0.9,0.6c4.5-1.3,9.2-1.6,13.9-1.5
		c9,0.2,16.9,3.3,23.7,9.1c5.1,4.4,9.2,9.6,11.9,15.9c1.8,4.2,2.4,8.6,2.5,13.1c0.2,8.6,0.2,17.1,0.1,25.7c0,2.4,0,5-1.1,7.3
		c-2.3,5.1-6.1,8.2-11.7,8.3c-5.1,0.1-9.2-2.1-12-6.6c-1.5-2.4-1.8-5.1-1.8-7.7c0-7.2,0.1-14.3,0.1-21.5c0-3.1,0-6.3-1.1-9.2
		c-1.6-4.4-4.8-7-9.5-7.9c-3.9-0.7-7.4-0.1-10.5,2.3C28.9,57.9,27,61,26.6,65c-0.5,5.8,0,11.7,0,17.5c0.1,4.4,0.2,8.8-0.3,13.2
		c-0.5,4.9-4.3,9.2-9.2,10c-5.1,0.9-9.7,0.1-13.4-3.8c-2.3-2.4-3.5-5.3-3.6-8.6C-0.2,79.5,0.2,65.8,0,54.7z"/>
	<path class="st0" d="M172.8,38.9c0,7.9,0,15.8,0,23.8c0,4.8-0.2,9.5-1.6,14.1c-2.7,9.2-7.8,16.6-15.6,22.2
		c-5.3,3.8-11.1,6-17.5,6.7c-6,0.7-12,0.4-17.7-1.6c-6.5-2.3-11.9-6.1-16.7-11.1c-5-5.2-8.1-11.4-9.6-18.3c-1-4.8-1.1-9.7-0.4-14.5
		c1.3-8.7,5.3-16,11.4-22.2c3.9-3.9,8.7-6.8,13.8-8.9c0.7-0.3,0.8,0,0.8,0.6c0,0.3,0,0.6,0,1c0,11.9,0.1,23.8-0.1,35.6
		c0,3.9,1.5,6.9,4.1,9.5c3.1,3,6.9,4.4,11.1,3.7c5.7-0.9,9.7-4.3,11.2-10.4c0.7-2.6,0.5-5.3,0.4-8c-0.1-1.4-0.1-2.8-0.1-4.2
		c0-11.3,0-22.6-0.1-33.8c0-3.4,0-6.7,0.1-10.1c0.3-5.7,2.9-10,8.3-12.1c8.4-3.2,16.9,2.4,17.8,10.6c0.3,2.6,0.2,5.3,0.2,7.9
		C172.8,25.9,172.8,32.4,172.8,38.9z"/>
	<path class="st0" d="M233,79.6c3.4,0,6.7-0.2,10,0.4c5.3,1,9.9,6.5,10,11.9c0.1,5.5-2.3,9.5-6.7,12.5c-1.5,1-3.2,1.4-5,1.5
		c-8,0.4-16,0.6-23.9-0.9c-5.8-1.2-11-3.8-15.7-7.6c-5.2-4.1-9.2-9.2-11.9-15.2c-1.6-3.5-2.4-7.2-2.8-11c-1.4-11.1,1.5-21,8.6-29.7
		c3.3-4,7.1-7.2,11.5-9.8c4-2.3,8.3-3.7,12.9-4.5c3.8-0.6,7.6-0.7,11.5-0.8c3.4-0.1,6.7-0.1,10,0.3c4.7,0.5,8.1,3.1,10.1,7.2
		c3.5,7,0.8,14.4-6.1,18c-2,1-4.1,1.2-6.3,1.3c-3.2,0.2-6.4-0.2-9.6-0.2c-2,0-3.9,0.2-5.8,0.5c-4.6,0.6-9.3,4.4-10.2,9
		c-1.1,5.3,0,10,4.4,13.7c2.7,2.3,5.8,3.5,9.3,3.5C229.2,79.6,231.1,79.6,233,79.6z"/>
</g>
</svg>
